<svg xmlns="http://www.w3.org/2000/svg" width="19" height="20" viewBox="0 0 19 20">
  <g id="Group_5" data-name="Group 5" transform="translate(0.5 0.5)">
    <line id="Line_1" data-name="Line 1" x2="17.824" transform="translate(0.093 7.034)" fill="none" stroke="#000" stroke-linecap="round" stroke-linejoin="round" stroke-width="1"/>
    <line id="Line_2" data-name="Line 2" x2="0.009" transform="translate(13.442 10.745)" fill="none" stroke="#000" stroke-linecap="round" stroke-linejoin="round" stroke-width="1"/>
    <line id="Line_3" data-name="Line 3" x2="0.009" transform="translate(9.005 10.745)" fill="none" stroke="#000" stroke-linecap="round" stroke-linejoin="round" stroke-width="1"/>
    <line id="Line_4" data-name="Line 4" x2="0.009" transform="translate(4.558 10.745)" fill="none" stroke="#000" stroke-linecap="round" stroke-linejoin="round" stroke-width="1"/>
    <line id="Line_5" data-name="Line 5" x2="0.009" transform="translate(13.442 14.436)" fill="none" stroke="#000" stroke-linecap="round" stroke-linejoin="round" stroke-width="1"/>
    <line id="Line_6" data-name="Line 6" x2="0.009" transform="translate(9.005 14.436)" fill="none" stroke="#000" stroke-linecap="round" stroke-linejoin="round" stroke-width="1"/>
    <line id="Line_7" data-name="Line 7" x2="0.009" transform="translate(4.558 14.436)" fill="none" stroke="#000" stroke-linecap="round" stroke-linejoin="round" stroke-width="1"/>
    <line id="Line_8" data-name="Line 8" y2="3.291" transform="translate(13.044)" fill="none" stroke="#000" stroke-linecap="round" stroke-linejoin="round" stroke-width="1"/>
    <line id="Line_9" data-name="Line 9" y2="3.291" transform="translate(4.966)" fill="none" stroke="#000" stroke-linecap="round" stroke-linejoin="round" stroke-width="1"/>
    <path id="Path_114" data-name="Path 114" d="M13.238,1.579H4.771C1.834,1.579,0,3.126,0,5.97v8.558C0,17.417,1.834,19,4.771,19h8.458C16.175,19,18,17.444,18,14.6V5.97C18.009,3.126,16.184,1.579,13.238,1.579Z" transform="translate(0 0)" fill="none" stroke="#000" stroke-linecap="round" stroke-linejoin="round" stroke-width="1" fill-rule="evenodd"/>
  </g>
</svg>
