<svg id="Group_6" data-name="Group 6" xmlns="http://www.w3.org/2000/svg" width="21.479" height="21.479" viewBox="0 0 21.479 21.479">
  <path id="Path_116" data-name="Path 116" d="M0,0H21.479V21.479H0Z" fill="none" fill-rule="evenodd"/>
  <path id="Path_117" data-name="Path 117" d="M8.328,19.829a1.791,1.791,0,0,1,3.467,0h9.677a.447.447,0,0,1,0,.895H11.8a1.791,1.791,0,0,1-3.467,0H3.574a.447.447,0,1,1,0-.895H8.328Zm1.734-.448a.9.9,0,1,1-.9.9A.9.9,0,0,1,10.062,19.381Zm5.426-6.712a1.791,1.791,0,0,1,3.467,0h2.517a.448.448,0,0,1,0,.9h-2.52a1.791,1.791,0,0,1-3.467,0H3.574a.448.448,0,0,1-.154-.868.441.441,0,0,1,.154-.027H15.488Zm1.733-.447a.9.9,0,1,1-.9.9.9.9,0,0,1,.9-.9ZM5.419,5.509a1.791,1.791,0,0,1,3.467,0H21.472a.447.447,0,0,1,0,.895H8.887a1.791,1.791,0,0,1-3.467,0H3.574a.447.447,0,1,1,0-.895Zm1.734-.448a.9.9,0,1,1-.9.895A.9.9,0,0,1,7.153,5.062Z" transform="translate(-1.783 -2.377)" fill-rule="evenodd"/>
</svg>
