<svg xmlns="http://www.w3.org/2000/svg" width="14.545" height="20" viewBox="0 0 14.545 20">
  <g id="Group_4" data-name="Group 4" transform="translate(-14 -8)">
    <path id="Path_110" data-name="Path 110" d="M21.273,8A7.279,7.279,0,0,0,14,15.273c0,2.084,1.288,5.138,2.786,7.774a23.236,23.236,0,0,0,2.307,3.4q.3.355.589.64H14.455a.455.455,0,1,0,0,.909H28.091a.455.455,0,0,0,0-.909H22.864q.288-.284.589-.64a23.2,23.2,0,0,0,2.306-3.4c1.5-2.635,2.787-5.69,2.787-7.774A7.279,7.279,0,0,0,21.273,8Zm0,.909a6.357,6.357,0,0,1,6.364,6.364c0,1.682-1.212,4.764-2.668,7.323a22.448,22.448,0,0,1-2.21,3.268,6.722,6.722,0,0,1-.948.949,1.277,1.277,0,0,1-.537.278,1.273,1.273,0,0,1-.537-.278,6.7,6.7,0,0,1-.948-.949A22.483,22.483,0,0,1,17.577,22.6c-1.455-2.56-2.668-5.642-2.668-7.323A6.357,6.357,0,0,1,21.273,8.909Z"/>
    <path id="Path_111" data-name="Path 111" d="M27.273,19a2.273,2.273,0,1,0,2.273,2.273A2.279,2.279,0,0,0,27.273,19Zm0,.909a1.364,1.364,0,1,1-1.364,1.364A1.357,1.357,0,0,1,27.273,19.909Z" transform="translate(-6 -6)"/>
  </g>
</svg>
