<svg xmlns="http://www.w3.org/2000/svg" xmlns:xlink="http://www.w3.org/1999/xlink" width="202.344" height="112.423" viewBox="0 0 202.344 112.423">
  <defs>
    <clipPath id="clip-path">
      <rect id="Rectangle_48" data-name="Rectangle 48" width="202.344" height="105.753" fill="#fff"/>
    </clipPath>
  </defs>
  <g id="Group_4258" data-name="Group 4258" transform="translate(14.844 -355.377)">
    <g id="Group_4256" data-name="Group 4256" transform="translate(-14.844 355.377)">
      <g id="Group_4248" data-name="Group 4248" clip-path="url(#clip-path)">
        <path id="Path_2157575" data-name="Path 2157575" d="M7.7,11.247a.809.809,0,0,1,.716.766c0,.358-.307.614-1.124.869A99.106,99.106,0,0,0,5.962,25.706h.255a20.9,20.9,0,0,1,16.911-9.044c7.306,0,11.751,3.883,11.751,10.321,0,6.08-3.678,10.78-10.525,13.488a61.729,61.729,0,0,1-12.67,3.014,24.043,24.043,0,0,0-1.482-5.62c5.467-.562,9.044-1.277,12.262-2.554,4.292-1.738,6.846-4.854,6.846-8.481,0-3.424-2.248-5.365-6.131-5.365-4.5,0-8.379,1.737-12.364,5.569a16.346,16.346,0,0,0-4.7,7.664L.852,34.6C.8,31.99.8,31.428.8,30.253c0-3.73.255-8.124.868-14.407.153-1.533.153-1.993.307-3.883a15.264,15.264,0,0,1,.2-2.044ZM6.779.16A36.566,36.566,0,0,1,19.3,6.086l-3.065,4.649a33.6,33.6,0,0,0-11.9-6.029Z" transform="translate(-0.29 -0.058)" fill="#fff"/>
        <path id="Path_2157576" data-name="Path 2157576" d="M89.91,3.689c.561.051.97.306.97.715,0,.358-.2.562-.868,1.022-.205,4.189-.767,24.677-.767,27.334,0,4.24,1.533,5.774,5.825,5.774a17.521,17.521,0,0,0,8.992-2.657c3.73-2.146,5.824-4.087,9.452-8.89a15.627,15.627,0,0,0,3.321,4.905c-3.933,4.649-6.233,6.693-9.911,8.787A24.8,24.8,0,0,1,94.457,44.1c-4.036,0-7.2-1.226-8.891-3.474-1.277-1.686-1.89-4.138-1.89-7.663,0-1.379.052-2.554.308-9.094.153-4.5.255-9.554.255-14.663,0-2.3-.05-4.138-.153-5.926Z" transform="translate(-30.239 -1.185)" fill="#fff"/>
        <path id="Path_2157577" data-name="Path 2157577" d="M182.3,3.27a1.06,1.06,0,0,1,.562.817c0,.409-.357.614-1.328.766-2.3,2.708-9.655,10.423-13.437,14-1.635,1.533-1.941,1.89-1.941,2.248,0,.307.255.715.919,1.379a175.73,175.73,0,0,1,15.992,18.955l-5.211,3.678c-1.277-2.146-3.168-5.007-4.8-7.306-2.1-2.912-8.225-10.269-11.036-13.182-1.635-1.685-2.095-2.452-2.095-3.372,0-1.124.971-2.452,3.628-5.007A130.784,130.784,0,0,0,174.685,3.883,28,28,0,0,0,177.188,0Z" transform="translate(-57.791)" fill="#fff"/>
        <path id="Path_2157578" data-name="Path 2157578" d="M225.74,47.041a67.388,67.388,0,0,1,10.014,11.5l-4.65,3.526a60.162,60.162,0,0,0-9.349-11.548Z" transform="translate(-80.137 -17)" fill="#fff"/>
      </g>
    </g>
    <g id="Group_4257" data-name="Group 4257" transform="translate(-14.844 421.921)">
      <path id="Path_2157579" data-name="Path 2157579" d="M6.183,107.713c.664.1,1.123.409,1.123.869,0,.409-.255.613-1.175.971a64.845,64.845,0,0,0-.46,10.218c0,4.8.715,8.482,2.2,11.445.817,1.686,2.146,2.912,3.116,2.912.869,0,1.482-1.839,2.4-7.1a27.312,27.312,0,0,0,4.751,2.912c-1.839,7.97-3.423,10.371-6.9,10.371-3.014,0-5.722-1.89-7.919-5.62A27.157,27.157,0,0,1,.46,126.514,45.8,45.8,0,0,1,0,119c0-2.5.2-8.43.357-10.729a7.642,7.642,0,0,0,.052-1.431Zm23.3,2.3c6.335,6.234,9.3,10.882,12.007,19.159l-5.467,2.554a34.081,34.081,0,0,0-4.5-10.73,40.686,40.686,0,0,0-5.978-7.51Z" transform="translate(0 -98.484)" fill="#fff"/>
      <path id="Path_2157580" data-name="Path 2157580" d="M113.839,101.877a67.175,67.175,0,0,1-8.481,3.014,59.354,59.354,0,0,0,2.4,5.671,44.99,44.99,0,0,0,8.686-4.189l2.35,4.394a54.21,54.21,0,0,1-8.992,4.087,62.889,62.889,0,0,0,7.357,11.036l-3.781,3.219c-4.036-2.862-7-3.883-11.087-3.883-4.445,0-6.949,1.685-6.949,4.751,0,3.014,3.015,4.394,9.656,4.394a46.284,46.284,0,0,0,6.489-.46,14.583,14.583,0,0,0-1.124,5.671c-1.993.051-2.861.051-4.394.051-5.211,0-8.022-.409-10.627-1.482a8.626,8.626,0,0,1-5.364-7.971c0-5.568,4.8-9.247,12.16-9.247a20.244,20.244,0,0,1,6.181.971c-.97-1.482-2.809-4.8-3.219-5.518a34.816,34.816,0,0,1-8.481,1.533c-3.73,0-5.62-1.482-5.62-4.547a8.559,8.559,0,0,1,.869-3.577l4.5.92a3.127,3.127,0,0,0-.46,1.482c0,.613.255.869,1.022.869a26.369,26.369,0,0,0,6.029-1.073c-.46-.971-1.789-4.088-2.453-5.773a127.4,127.4,0,0,1-13.028,2.2l-.971-5.007a106.672,106.672,0,0,0,12.518-1.736c-.1-.256-.613-1.993-.92-3.015-.869-2.861-1.328-4.343-1.379-4.5l5.824-.409h.1a.635.635,0,0,1,.665.613c0,.358-.052.511-.767,1.022.358,1.686.818,3.321,1.328,5.007a50.857,50.857,0,0,0,7.817-3.066Z" transform="translate(-31.261 -93.753)" fill="#fff"/>
      <path id="Path_2157581" data-name="Path 2157581" d="M185.618,103.219l1.634,4.6a45.563,45.563,0,0,1-9.86,2.606c-.971,3.422-1.431,5.109-2.861,9.043a122.014,122.014,0,0,1-8.634,19.772,14.245,14.245,0,0,0-4.6-2.913c3.985-6.642,7.2-14.254,10.627-25.289-3.372.255-4.9.357-8.685.357l-.051-5.058a94.342,94.342,0,0,0,10.218-.409A66.79,66.79,0,0,0,175.4,95.913l5.518,1.379c.409.1.716.358.716.613,0,.358-.205.562-.971.92-.562,2.146-1.226,4.854-1.788,6.387a45.026,45.026,0,0,0,6.744-1.993m.1,23.2c-1.43,2.044-1.89,3.116-1.89,4.445,0,1.993,1.839,2.5,9.248,2.5a44.177,44.177,0,0,0,9.656-1.125,22.932,22.932,0,0,0-.511,5.467,66.885,66.885,0,0,1-9.452.664,42.677,42.677,0,0,1-9.657-.817,5.808,5.808,0,0,1-4.394-5.926c0-2.452.92-4.445,3.321-7.358Zm-5.109-11.342c6.285-1.993,9.809-2.606,15.277-2.606,1.073,0,2.708.051,4.8.153l-.2,4.956c-3.934-.153-4.445-.153-5.109-.153-4.292,0-7,.459-13.539,2.247Z" transform="translate(-58.29 -94.534)" fill="#fff"/>
      <path id="Path_2157582" data-name="Path 2157582" d="M258.064,106.862c.664.1,1.123.409,1.123.869,0,.409-.255.613-1.175.971a64.848,64.848,0,0,0-.46,10.218c0,4.8.715,8.482,2.2,11.445.817,1.686,2.146,2.912,3.116,2.912.869,0,1.482-1.839,2.4-7.1a27.312,27.312,0,0,0,4.751,2.912c-1.839,7.97-3.422,10.371-6.9,10.371-3.014,0-5.722-1.89-7.919-5.62a27.157,27.157,0,0,1-2.861-8.174,45.8,45.8,0,0,1-.46-7.511c0-2.5.2-8.43.357-10.729a7.642,7.642,0,0,0,.052-1.431Zm23.3,2.3c6.335,6.234,9.3,10.882,12.007,19.159l-5.467,2.554a34.082,34.082,0,0,0-4.5-10.73,40.685,40.685,0,0,0-5.978-7.51Z" transform="translate(-91.024 -98.176)" fill="#fff"/>
    </g>
  </g>
</svg>
