<svg width="120" height="24" viewBox="0 0 120 24" fill="none" xmlns="http://www.w3.org/2000/svg">
<path d="M12 17.77L18.18 21.5L16.54 14.47L22 9.74L14.81 9.13L12 2.5L9.19 9.13L2 9.74L7.46 14.47L5.82 21.5L12 17.77Z" fill="black" fill-opacity="0.54"/>
<path d="M36 17.77L42.18 21.5L40.54 14.47L46 9.74L38.81 9.13L36 2.5L33.19 9.13L26 9.74L31.46 14.47L29.82 21.5L36 17.77Z" fill="black" fill-opacity="0.54"/>
<path d="M60 17.77L66.18 21.5L64.54 14.47L70 9.74L62.81 9.13L60 2.5L57.19 9.13L50 9.74L55.46 14.47L53.82 21.5L60 17.77Z" fill="black" fill-opacity="0.54"/>
<path d="M84 17.77L90.18 21.5L88.54 14.47L94 9.74L86.81 9.13L84 2.5L81.19 9.13L74 9.74L79.46 14.47L77.82 21.5L84 17.77Z" fill="black" fill-opacity="0.54"/>
<path d="M118 9.74L110.81 9.12L108 2.5L105.19 9.13L98 9.74L103.46 14.47L101.82 21.5L108 17.77L114.18 21.5L112.55 14.47L118 9.74ZM108 15.9V6.6L109.71 10.64L114.09 11.02L110.77 13.9L111.77 18.18L108 15.9Z" fill="black" fill-opacity="0.54"/>
</svg>
