<svg xmlns="http://www.w3.org/2000/svg" width="116.001" height="116" viewBox="0 0 116.001 116">
  <g id="Group_100" data-name="Group 100" transform="translate(-329.305 -4406.783)">
    <g id="Group_3" data-name="Group 3" transform="translate(344.595 4422.071)">
      <g id="Group_2" data-name="Group 2" transform="translate(14.359 31.276)">
        <path id="Path_2157317" data-name="Path 2157317" d="M4.5,3.5v.814" transform="translate(2.045 -3.5)" fill="none" stroke="#fff" stroke-linecap="round" stroke-linejoin="round" stroke-width="6"/>
        <path id="Path_2157318" data-name="Path 2157318" d="M4.5,5.9V27.395" transform="translate(2.045 -1.992)" fill="none" stroke="#fff" stroke-linecap="round" stroke-linejoin="round" stroke-width="6" stroke-dasharray="6 12"/>
        <path id="Path_2157319" data-name="Path 2157319" d="M4.5,30.368v.814M28.926,3.5v.814" transform="translate(2.045 -3.5)" fill="none" stroke="#fff" stroke-linecap="round" stroke-linejoin="round" stroke-width="6"/>
        <path id="Path_2157320" data-name="Path 2157320" d="M19.5,5.9V27.395" transform="translate(11.471 -1.992)" fill="none" stroke="#fff" stroke-linecap="round" stroke-linejoin="round" stroke-width="6" stroke-dasharray="6 12"/>
        <path id="Path_2157321" data-name="Path 2157321" d="M31.452,30.368v.814m-19.541-9.77H26.566M16.8,26.3h9.77m8.142-8.956c0-2.605.977-4.885,2.443-5.536.489-.326.977-.977.814-1.466v-4.4A2.5,2.5,0,0,0,35.522,3.5H2.955A2.5,2.5,0,0,0,.512,5.943v4.4a2,2,0,0,0,.814,1.628c1.466.489,2.443,2.768,2.443,5.374s-.977,4.885-2.443,5.536c-.489.326-.977.977-.814,1.466v3.908a2.6,2.6,0,0,0,2.28,2.931H35.685a2.5,2.5,0,0,0,2.443-2.443v-4.4a1.526,1.526,0,0,0-.814-1.466c-1.628-.651-2.605-2.931-2.605-5.536Z" transform="translate(-0.48 -3.5)" fill="none" stroke="#fff" stroke-linecap="round" stroke-linejoin="round" stroke-width="6"/>
        <path id="Path_2157322" data-name="Path 2157322" d="M20.341,10.083l-2.28,4.559-2.605.814.814-4.234L8.128,13.828V12.2L6.5,9.757l.814-.977L9.105,9.92a1.661,1.661,0,0,0,1.466.326L20.993,6.663c1.14-.489,3.42.163,3.42,1.3h0c0,.651-.489.977-1.14,1.3l-2.931.814Z" transform="translate(3.302 -1.615)" fill="none" stroke="#fff" stroke-linecap="round" stroke-linejoin="round" stroke-width="6"/>
      </g>
      <path id="Path_13" data-name="Path 13" d="M11.7,73.421h6.1a2.856,2.856,0,0,0,2.852-2.852v-6.1A2.856,2.856,0,0,0,17.8,61.618H11.7a2.856,2.856,0,0,0-2.852,2.852v6.1A2.856,2.856,0,0,0,11.7,73.421Zm.1-8.852h5.9v5.9H11.8ZM55.486,63.2a16.91,16.91,0,1,0-11.962-4.947A16.91,16.91,0,0,0,55.486,63.2ZM55.32,45.39H41.558a13.951,13.951,0,0,1,1.733-5.9H55.32a1.475,1.475,0,1,0,0-2.951H45.493c.04-.041.077-.083.117-.123A13.967,13.967,0,1,1,65.363,56.168h0a13.959,13.959,0,0,1-23.686-7.827H55.32a1.475,1.475,0,0,0,0-2.951ZM22.547,8.888a1.475,1.475,0,1,0,1.475,1.475,1.475,1.475,0,0,0-1.475-1.475Zm4.426,40.929a1.475,1.475,0,0,0,1.475,1.475h4.828A22.785,22.785,0,0,0,67.847,65.419l2.106,2.106a2.139,2.139,0,0,0,.1,2.91l13.2,13.2a6.77,6.77,0,0,0,9.575-9.575l-13.2-13.2a2.139,2.139,0,0,0-2.91-.1l-2.106-2.106a22.773,22.773,0,0,0-35.23-28.463q-.222.222-.436.449h-10.5a1.475,1.475,0,0,0,0,2.951h8.137a22.789,22.789,0,0,0-3.768,14.753H28.449a1.475,1.475,0,0,0-1.475,1.475ZM77.756,63.885l0,0,0,0,.359-.359L90.741,76.145a3.82,3.82,0,0,1-5.4,5.4L72.717,68.924ZM74.628,62.84l-2.594,2.594L70.24,63.639q.693-.591,1.349-1.244t1.244-1.349ZM41.47,32.275a19.761,19.761,0,1,1-5.831,14.016A19.822,19.822,0,0,1,41.47,32.275ZM93.336-.343H7.376A7.385,7.385,0,0,0,0,7.033V92.993a7.385,7.385,0,0,0,7.376,7.376H93.336a7.385,7.385,0,0,0,7.376-7.376V7.033A7.385,7.385,0,0,0,93.336-.343Zm4.426,93.336a4.431,4.431,0,0,1-4.426,4.426H7.376a4.431,4.431,0,0,1-4.426-4.426V20.311H97.761Zm0-75.632H2.951V7.033A4.431,4.431,0,0,1,7.376,2.608H93.336a4.431,4.431,0,0,1,4.426,4.426ZM16.646,8.888a1.475,1.475,0,1,0,1.475,1.475,1.475,1.475,0,0,0-1.475-1.475ZM11.7,55.717h6.1a2.856,2.856,0,0,0,2.852-2.852v-6.1A2.856,2.856,0,0,0,17.8,43.915H11.7a2.856,2.856,0,0,0-2.852,2.852v6.1A2.856,2.856,0,0,0,11.7,55.717Zm.1-8.852h5.9v5.9H11.8Zm-.1,44.258h6.1a2.856,2.856,0,0,0,2.852-2.852v-6.1A2.856,2.856,0,0,0,17.8,79.322H11.7a2.856,2.856,0,0,0-2.852,2.852v6.1A2.856,2.856,0,0,0,11.7,91.124Zm.1-8.852h5.9v5.9H11.8Zm-.1-44.258h6.1a2.856,2.856,0,0,0,2.852-2.852v-6.1A2.856,2.856,0,0,0,17.8,26.212H11.7a2.856,2.856,0,0,0-2.852,2.852v6.1A2.856,2.856,0,0,0,11.7,38.014Zm.1-8.852h5.9v5.9H11.8ZM28.449,86.7H78.583a1.475,1.475,0,0,0,0-2.951H28.449a1.475,1.475,0,0,0,0,2.951Zm-17.7-77.81a1.475,1.475,0,1,0,1.475,1.475,1.475,1.475,0,0,0-1.475-1.475Zm17.7,60.107h9.169a1.475,1.475,0,1,0,0-2.951H28.449a1.475,1.475,0,1,0,0,2.951Z" transform="translate(0 0.343)" fill="#1a35c9"/>
    </g>
    <path id="Path_2157323" data-name="Path 2157323" d="M32.825,17.479a5.5,5.5,0,0,1,.494-1.714A4.837,4.837,0,0,0,33.8,12.37a5.256,5.256,0,0,0-2.5-2.516A5.783,5.783,0,0,1,29.88,8.8a5.177,5.177,0,0,1-.626-1.626,5.106,5.106,0,0,0-1.7-3.043,5.49,5.49,0,0,0-3.482-.593,5.862,5.862,0,0,1-1.857-.088,5.466,5.466,0,0,1-1.472-.934A5.416,5.416,0,0,0,17.479,1a5.422,5.422,0,0,0-3.263,1.516,5.466,5.466,0,0,1-1.472.934,5.862,5.862,0,0,1-1.857.088A5.49,5.49,0,0,0,7.4,4.131,5.106,5.106,0,0,0,5.7,7.174,5.177,5.177,0,0,1,5.076,8.8,5.917,5.917,0,0,1,3.67,9.854,5.232,5.232,0,0,0,1.154,12.37a4.837,4.837,0,0,0,.483,3.395,5.5,5.5,0,0,1,.494,1.714,5.5,5.5,0,0,1-.494,1.714,4.837,4.837,0,0,0-.483,3.395,5.256,5.256,0,0,0,2.5,2.516,5.783,5.783,0,0,1,1.417,1.055A5.177,5.177,0,0,1,5.7,27.783a5.106,5.106,0,0,0,1.7,3.043,5.49,5.49,0,0,0,3.482.593,5.862,5.862,0,0,1,1.857.088,5.466,5.466,0,0,1,1.472.934,5.422,5.422,0,0,0,3.263,1.516,5.422,5.422,0,0,0,3.263-1.516,5.466,5.466,0,0,1,1.472-.934,5.862,5.862,0,0,1,1.857-.088,5.49,5.49,0,0,0,3.482-.593,5.106,5.106,0,0,0,1.7-3.043,5.177,5.177,0,0,1,.626-1.626A5.917,5.917,0,0,1,31.288,25.1,5.232,5.232,0,0,0,33.8,22.587a4.837,4.837,0,0,0-.483-3.395A5.477,5.477,0,0,1,32.825,17.479Z" transform="translate(328.306 4405.783)" fill="#ffd0cc"/>
    <text id="_01" data-name="01" transform="translate(338.374 4426.396)" fill="#fff" font-size="11" font-family="WorkSans-Bold, Work Sans" font-weight="700"><tspan x="0" y="0">01</tspan></text>
  </g>
</svg>
