<svg xmlns="http://www.w3.org/2000/svg" width="32.971" height="41.447" viewBox="0 0 32.971 41.447">
  <g id="Group_4246" data-name="Group 4246" transform="translate(-26.06 -19.9)">
    <path id="Path_2157573" data-name="Path 2157573" d="M58.931,35.914v-4.73A11.193,11.193,0,0,0,47.753,20H31.515a5.362,5.362,0,0,0-5.355,5.355V55.892a5.362,5.362,0,0,0,5.355,5.355H53.582a5.356,5.356,0,0,0,5.348-5.355Zm-2.977-4.73V34.45H49.7a2.376,2.376,0,0,1-2.372-2.372V22.984h.433A8.208,8.208,0,0,1,55.954,31.185ZM53.582,58.27H31.515A2.376,2.376,0,0,1,29.144,55.9V25.355a2.376,2.376,0,0,1,2.372-2.372H44.343v9.088A5.362,5.362,0,0,0,49.7,37.427h6.256V55.9A2.376,2.376,0,0,1,53.582,58.27Z" fill="#1a35c9" stroke="#fff" stroke-width="0.2"/>
    <path id="Path_2157574" data-name="Path 2157574" d="M49.173,54.528H37.542a1.492,1.492,0,0,0,0,2.984H49.173a1.492,1.492,0,1,0,0-2.984Zm0-5.128H37.542a1.492,1.492,0,0,0,0,2.984H49.173a1.492,1.492,0,1,0,0-2.984ZM43.584,59.657H37.542a1.492,1.492,0,1,0,0,2.984h6.043a1.492,1.492,0,0,0,0-2.984Z" transform="translate(-3.091 -9.189)" fill="#1a35c9" stroke="#fff" stroke-width="0.2"/>
  </g>
</svg>
