<svg xmlns="http://www.w3.org/2000/svg" width="33.798" height="40.554" viewBox="0 0 33.798 40.554">
  <path id="Layer_5" data-name="Layer 5" d="M36.212,18.363a1.69,1.69,0,0,1,0-1.69L39.119,11.6A5.069,5.069,0,0,0,34.725,4H7.69A1.69,1.69,0,0,0,6,5.69V42.864a1.69,1.69,0,0,0,3.379,0V31.036H34.725a5.069,5.069,0,0,0,4.393-7.587Zm0,8.449a1.69,1.69,0,0,1-1.487.845H9.379V7.379H34.725a1.69,1.69,0,0,1,1.453,2.535l-2.923,5.069a5.069,5.069,0,0,0,0,5.069l2.923,5.069a1.69,1.69,0,0,1,0,1.69Z" transform="translate(-6 -4)" fill="#1a35c9"/>
</svg>
