<svg xmlns="http://www.w3.org/2000/svg" width="45.018" height="45.021" viewBox="0 0 45.018 45.021">
  <path id="Path_145" data-name="Path 145" d="M23,11.172c0-.006,0-.012,0-.018V6.274h6.274a.7.7,0,0,0,.567-1.1L28.395,3.137,29.848,1.1A.7.7,0,0,0,29.281,0H22.309a.7.7,0,0,0-.7.7V11.155c0,.006,0,.012,0,.018a16.732,16.732,0,1,0,1.391,0Zm0-9.778h4.92L26.97,2.732a.7.7,0,0,0,0,.81l.956,1.338h-4.92Zm-.7,11.155c1.616,0,3.343,2.366,4.441,6.274H17.868C18.966,14.915,20.693,12.549,22.309,12.549Zm-5.57,14.64a35.153,35.153,0,0,1,.78-6.972H27.1a35.153,35.153,0,0,1,.78,6.972Zm11.14,1.394a35.153,35.153,0,0,1-.78,6.972H17.518a35.154,35.154,0,0,1-.78-6.972ZM19.188,12.869a15.405,15.405,0,0,0-2.769,5.954H9.946a15.365,15.365,0,0,1,9.242-5.954ZM9.035,20.218h7.054a37.081,37.081,0,0,0-.745,6.972H6.989a15.227,15.227,0,0,1,2.046-6.972ZM6.989,28.583h8.355a37.08,37.08,0,0,0,.745,6.972H9.035a15.227,15.227,0,0,1-2.046-6.972Zm2.957,8.366h6.473A15.406,15.406,0,0,0,19.188,42.9a15.366,15.366,0,0,1-9.242-5.954Zm12.363,6.274c-1.616,0-3.343-2.366-4.441-6.274H26.75C25.652,40.858,23.925,43.224,22.309,43.224Zm3.121-.32A15.406,15.406,0,0,0,28.2,36.949h6.473A15.366,15.366,0,0,1,25.43,42.9Zm10.153-7.349H28.529a37.081,37.081,0,0,0,.745-6.972h8.355A15.227,15.227,0,0,1,35.583,35.555Zm2.046-8.366H29.273a37.081,37.081,0,0,0-.745-6.972h7.054A15.227,15.227,0,0,1,37.629,27.189ZM28.2,18.823a15.405,15.405,0,0,0-2.769-5.954,15.365,15.365,0,0,1,9.242,5.954ZM43.921,0a.7.7,0,0,0-.7.7v9.76a.7.7,0,1,0,1.394,0V.7a.7.7,0,0,0-.7-.7ZM41.132,0a.7.7,0,0,0-.7.7V4.88a.7.7,0,1,0,1.394,0V.7a.7.7,0,0,0-.7-.7ZM.7,0A.7.7,0,0,0,0,.7v9.76a.7.7,0,0,0,1.394,0V.7A.7.7,0,0,0,.7,0ZM3.486,0a.7.7,0,0,0-.7.7V4.88a.7.7,0,0,0,1.394,0V.7a.7.7,0,0,0-.7-.7Z" transform="translate(0.2 0.2)" fill="#1a35c9" stroke="#1a35c9" stroke-width="0.4"/>
</svg>
