<svg xmlns="http://www.w3.org/2000/svg" width="6.178" height="8.915" viewBox="0 0 6.178 8.915">
  <path id="Path_138" data-name="Path 138" d="M6.576,2A3.088,3.088,0,0,0,3.492,5.084a.343.343,0,0,0,.016.107A5.772,5.772,0,0,0,4.557,8.1c.57.907,1.23,1.756,1.654,2.624a.343.343,0,0,0,.613.007A30.519,30.519,0,0,1,8.561,8.1,5.5,5.5,0,0,0,9.67,5.089a.343.343,0,0,0-.023-.127A3.084,3.084,0,0,0,6.576,2Zm0,.685a2.393,2.393,0,0,1,2.4,2.4.343.343,0,0,0,.007.073,4.953,4.953,0,0,1-.994,2.57c-.471.713-1,1.45-1.462,2.216-.437-.762-.94-1.5-1.386-2.209a5.032,5.032,0,0,1-.95-2.645.343.343,0,0,0-.005-.064,2.39,2.39,0,0,1,2.393-2.34Zm0,1.373A1.028,1.028,0,1,0,7.6,5.086,1.033,1.033,0,0,0,6.576,4.059Zm0,.685a.345.345,0,1,1-.343.343.338.338,0,0,1,.343-.343Z" transform="translate(-3.492 -2)"/>
</svg>
