<svg xmlns="http://www.w3.org/2000/svg" xmlns:xlink="http://www.w3.org/1999/xlink" width="1440" height="344" viewBox="0 0 1440 344">
  <defs>
    <clipPath id="clip-path">
      <rect id="Rectangle_12" data-name="Rectangle 12" width="1440" height="344" fill="#ffd0cc"/>
    </clipPath>
    <clipPath id="clip-path-2">
      <rect id="Rectangle_11" data-name="Rectangle 11" width="373.318" height="369.254" transform="translate(0 0)" fill="none"/>
    </clipPath>
  </defs>
  <g id="Group_4337" data-name="Group 4337" transform="translate(1440 5184.999) rotate(180)">
    <g id="Mask_Group_2" data-name="Mask Group 2" transform="translate(0 4840.999)" clip-path="url(#clip-path)">
      <g id="Group_26" data-name="Group 26" transform="translate(1071.289 93.971)">
        <g id="Group_24" data-name="Group 24" transform="matrix(0.999, -0.035, 0.035, 0.999, 0, 13.029)" clip-path="url(#clip-path-2)">
          <path id="Path_126" data-name="Path 126" d="M247.628,332.475,8.611,127.193A24.711,24.711,0,0,1,5.965,92.347L77.883,8.611a24.71,24.71,0,0,1,34.845-2.645L351.746,211.247a24.711,24.711,0,0,1,2.645,34.846l-71.918,83.736a24.711,24.711,0,0,1-34.846,2.645" transform="matrix(0.978, 0.208, -0.208, 0.978, 135.845, -10.57)" fill="#1c3698"/>
          <path id="Path_127" data-name="Path 127" d="M276.508,248.937l2.082-2.425c9.076-10.568,8.217-26.192-1.917-34.895L36.867,5.656C26.733-3.049,11.159-1.538,2.083,9.029L0,11.454Z" transform="matrix(0.978, 0.208, -0.208, 0.978, 209.668, 5.09)" fill="#f0f0f0"/>
          <path id="Path_128" data-name="Path 128" d="M5.945,117.814,0,112.893l.418-.488,5.8,5.09Zm16.392-19.09L16.486,93.7,32.574,74.955l5.86,5.03ZM54.53,61.247l-5.851-5.029,16.087-18.74,5.861,5.029Zm32.188-37.48-5.861-5.029L96.958,0l5.851,5.029Z" transform="matrix(0.978, 0.208, -0.208, 0.978, 156.488, 20.146)" fill="#fef4db"/>
          <path id="Path_129" data-name="Path 129" d="M58.74,94.642h0l.007.01,19.293,4.729-2.191-4.543Q66.4,88.812,56.941,82.784q-7.607-17.216-15.219-34.43l40.27-4.6-3.531-6.594L63.546,33.473,62.115,30.8,58.4,29.892l1.427,2.661-9.983-2.467q-.692-1.29-1.381-2.579-1.844-.429-3.689-.86l1.35,2.521L31.665,25.6q-3.157-7.141-6.31-14.277C24.218,9.227,20.369,2.782,12.893.669A17.955,17.955,0,0,0,8.1,0L8.082,0l-.01.018a17.939,17.939,0,0,0-2.1,4.357C3.589,11.77,6.819,18.546,7.93,20.65q4.192,6.582,8.385,13.162L11.273,47.829l-1.35-2.521L8.594,48.856q.692,1.29,1.381,2.581L6.5,61.112,5.069,58.451l-1.3,3.595L5.2,64.719,0,79.176l3.531,6.6L29.683,54.8,49.974,86.657c-.032-.031-.066-.06-.1-.089l-.451,22.423q1.287,2.171,2.567,4.342,3.381-9.342,6.76-18.681l-.012-.01" transform="translate(134.019 117.532)" fill="#fff"/>
          <path id="Path_130" data-name="Path 130" d="M274.368,310.72,11.134,137.579a24.711,24.711,0,0,1-7.066-34.224l60.657-92.22A24.712,24.712,0,0,1,98.951,4.069L362.184,177.21a24.709,24.709,0,0,1,7.066,34.223l-60.657,92.22a24.711,24.711,0,0,1-34.224,7.066" transform="translate(0 54.466)" fill="#2a46b2"/>
          <path id="Path_131" data-name="Path 131" d="M304.524,214.6l1.756-2.671c7.656-11.637,4.812-27.025-6.349-34.366L35.829,3.846C24.666-3.5,9.412-.013,1.757,11.626L0,14.3Z" transform="translate(62.687 54.402)" fill="#f0f0f0"/>
          <path id="Path_132" data-name="Path 132" d="M6.442,133.152,0,128.9l3.338-5.077,6.452,4.241ZM23.36,107.429l-6.452-4.24L30.484,82.551,36.936,86.8ZM50.511,66.156l-6.453-4.24L57.634,41.277l6.451,4.245ZM77.66,24.88l-6.452-4.241L84.784,0l6.451,4.246Z" transform="translate(30.453 72.148)" fill="#fef4db"/>
          <path id="Path_133" data-name="Path 133" d="M64.14,87.553h0l.007.01,19.741,2.231L81.14,85.564l-20.3-9.544h0L41.361,43.81l39.355-9.7-4.342-6.091L61.109,26.27,59.35,23.8l-3.8-.427L57.3,25.832,47.086,24.659l-1.7-2.384-3.769-.382,1.66,2.327-14.794-1.7L20.4,9.165C19.013,7.235,14.374,1.333,6.688.191A17.93,17.93,0,0,0,1.853.138H1.832l-.007.02A17.927,17.927,0,0,0,.3,4.748C-1.125,12.386,2.942,18.7,4.313,20.639q5,5.994,9.993,11.986L11.093,47.172,9.434,44.845Q9,46.688,8.567,48.532l1.7,2.382L8.048,60.956,6.294,58.5q-.417,1.867-.834,3.732L7.222,64.7l-3.315,15L8.25,85.791,30.241,51.739,54.427,80.75l-.108-.076q1.206,11.148,2.41,22.3l3.1,3.979q2.16-9.694,4.322-19.39l-.012-.009" transform="translate(134.04 166.104)" fill="#fff"/>
        </g>
      </g>
    </g>
  </g>
</svg>
