<svg xmlns="http://www.w3.org/2000/svg" xmlns:xlink="http://www.w3.org/1999/xlink" width="789.204" height="688.826" viewBox="0 0 789.204 688.826">
  <defs>
    <clipPath id="clip-path">
      <rect id="Rectangle_38" data-name="Rectangle 38" width="670.676" height="524.272" fill="#8692d9"/>
    </clipPath>
  </defs>
  <g id="Group_99" data-name="Group 99" transform="translate(-6.875 71.361) rotate(-16)">
    <g id="Group_98" data-name="Group 98" transform="translate(-24.676 111)" clip-path="url(#clip-path)">
      <path id="Path_150" data-name="Path 150" d="M335.654,455.1c-3.925,0-7.948-.059-11.963-.174a2.1,2.1,0,0,1-2.034-2.155,2.142,2.142,0,0,1,2.155-2.034c4.04.119,8.09.136,12.036.174l2.547-.008h.015a2.094,2.094,0,0,1,.015,4.189l-2.574.008Zm17.408-.356a2.094,2.094,0,0,1-.084-4.187c4.85-.2,9.749-.492,14.556-.869a2.094,2.094,0,1,1,.327,4.176c-4.857.379-9.806.674-14.711.878-.029,0-.057,0-.088,0m-43.954-.492c-.046,0-.088,0-.134,0-4.838-.3-9.778-.7-14.683-1.175a2.094,2.094,0,1,1,.4-4.168c4.859.471,9.751.863,14.541,1.162a2.094,2.094,0,0,1-.128,4.184m73.18-1.784a2.094,2.094,0,0,1-.237-4.174c4.84-.557,9.7-1.2,14.451-1.933a2.094,2.094,0,1,1,.635,4.14c-4.8.735-9.716,1.393-14.608,1.952a1.882,1.882,0,0,1-.241.015M279.93,451.428a2.04,2.04,0,0,1-.274-.019c-4.848-.633-9.751-1.353-14.572-2.142a2.1,2.1,0,0,1-1.728-2.409,2.069,2.069,0,0,1,2.406-1.726c4.775.783,9.632,1.5,14.436,2.126a2.094,2.094,0,0,1-.268,4.17m131.333-3.387a2.094,2.094,0,0,1-.392-4.151c4.771-.913,9.569-1.929,14.262-3.018a2.095,2.095,0,0,1,.945,4.082c-4.744,1.1-9.6,2.126-14.417,3.049a2.146,2.146,0,0,1-.4.038M251,446.686a2.241,2.241,0,0,1-.406-.038c-4.8-.945-9.642-1.981-14.4-3.077a2.094,2.094,0,1,1,.938-4.082c4.721,1.085,9.523,2.111,14.275,3.047a2.094,2.094,0,0,1-.4,4.149m188.84-5.213a2.094,2.094,0,0,1-.532-4.12c4.993-1.315,9.584-2.612,14.04-3.962a2.094,2.094,0,1,1,1.215,4.009c-4.5,1.365-9.146,2.674-14.187,4a2.152,2.152,0,0,1-.536.069M222.424,440.11a2.136,2.136,0,0,1-.534-.069c-4.687-1.234-9.458-2.57-14.181-3.971a2.095,2.095,0,0,1,1.192-4.017c4.681,1.391,9.41,2.714,14.055,3.937a2.094,2.094,0,0,1-.532,4.12m245.464-7.2a2.094,2.094,0,0,1-.706-4.065c4.721-1.688,9.276-3.47,13.54-5.3a2.094,2.094,0,1,1,1.652,3.847c-4.344,1.864-8.981,3.678-13.781,5.395a2.077,2.077,0,0,1-.706.121M194.316,431.77a2,2,0,0,1-.658-.107c-4.668-1.541-9.347-3.169-13.908-4.832a2.095,2.095,0,1,1,1.437-3.935c4.52,1.648,9.161,3.263,13.787,4.792a2.094,2.094,0,0,1-.658,4.082m-27.545-10.04a2.062,2.062,0,0,1-.775-.149c-4.547-1.814-9.119-3.72-13.592-5.663a2.094,2.094,0,1,1,1.669-3.841c4.434,1.927,8.968,3.814,13.475,5.615a2.093,2.093,0,0,1-.777,4.038m328.033-.454a2.1,2.1,0,0,1-.976-3.95c4.39-2.3,8.589-4.763,12.482-7.3a2.093,2.093,0,1,1,2.291,3.5c-4,2.616-8.321,5.142-12.826,7.508a2.117,2.117,0,0,1-.972.241M139.88,410.05a2.07,2.07,0,0,1-.89-.2c-4.434-2.086-8.884-4.26-13.228-6.463a2.1,2.1,0,0,1,1.9-3.736c4.3,2.184,8.717,4.342,13.113,6.409a2.094,2.094,0,0,1-.892,3.99M519.262,405.2a2.094,2.094,0,0,1-1.338-3.707,112.346,112.346,0,0,0,10.457-9.848,2.094,2.094,0,1,1,3.064,2.855,115.9,115.9,0,0,1-10.851,10.216,2.065,2.065,0,0,1-1.332.484m-405.525-8.411a2.082,2.082,0,0,1-1-.255c-4.3-2.344-8.614-4.779-12.819-7.24a2.094,2.094,0,0,1,2.115-3.615c4.17,2.44,8.444,4.855,12.708,7.177a2.094,2.094,0,0,1-1,3.933m425.384-13a2.093,2.093,0,0,1-1.713-3.294,101.612,101.612,0,0,0,7.364-12.306,2.1,2.1,0,0,1,3.738,1.893,105.8,105.8,0,0,1-7.672,12.813,2.086,2.086,0,0,1-1.717.894m-450.688-1.8a2.071,2.071,0,0,1-1.11-.32q-4.964-3.107-9.845-6.327l-2.517-1.673a2.095,2.095,0,0,1,2.331-3.481l2.492,1.657q4.841,3.195,9.762,6.275a2.095,2.095,0,0,1-1.112,3.87M64.095,365.642a2.081,2.081,0,0,1-1.229-.4c-4.14-3.016-8.08-6.046-11.712-9.01a2.094,2.094,0,1,1,2.649-3.244c3.571,2.915,7.45,5.9,11.525,8.865a2.094,2.094,0,0,1-1.234,3.789M552.4,357.769a2.091,2.091,0,0,1-1.964-2.823c1.65-4.436,3.19-8.861,4.886-13.772a2.095,2.095,0,1,1,3.96,1.368c-1.707,4.936-3.255,9.387-4.92,13.865a2.1,2.1,0,0,1-1.962,1.363M41.447,347.055a2.088,2.088,0,0,1-1.437-.57c-3.709-3.5-7.194-7.073-10.354-10.631a2.093,2.093,0,1,1,3.129-2.781c3.081,3.466,6.48,6.951,10.1,10.365a2.093,2.093,0,0,1-1.437,3.617m520.714-16.939a2.092,2.092,0,0,1-1.969-2.813c1.937-5.313,3.663-9.684,5.424-13.754a2.1,2.1,0,0,1,3.845,1.665c-1.73,3.994-3.424,8.291-5.334,13.525a2.093,2.093,0,0,1-1.967,1.376m-540.1-4.991a2.086,2.086,0,0,1-1.7-.873q-1.728-2.406-3.347-4.9c-1.621-2.5-3.165-5.1-4.584-7.736a2.094,2.094,0,0,1,3.686-1.988c1.368,2.534,2.852,5.037,4.413,7.443q1.564,2.406,3.236,4.737a2.094,2.094,0,0,1-1.7,3.315M641.632,307.78a2.094,2.094,0,0,1-.207-4.178,34.181,34.181,0,0,0,13.159-3.9,2.095,2.095,0,0,1,2.021,3.669,38.334,38.334,0,0,1-14.759,4.4c-.071.006-.145.01-.214.01m-14.585-.767a2,2,0,0,1-.413-.042,57.222,57.222,0,0,1-14.334-4.947,2.094,2.094,0,0,1,1.87-3.747,53.062,53.062,0,0,0,13.286,4.587,2.095,2.095,0,0,1-.41,4.149m-53.035-3.684a2.094,2.094,0,0,1-1.822-3.125,96.63,96.63,0,0,1,8.294-12.453,2.094,2.094,0,1,1,3.288,2.593,92.7,92.7,0,0,0-7.933,11.921,2.092,2.092,0,0,1-1.826,1.064M8.2,299.379a2.094,2.094,0,0,1-1.96-1.359,101.848,101.848,0,0,1-4.21-14.352,2.095,2.095,0,0,1,4.1-.875,97.869,97.869,0,0,0,4.036,13.76A2.092,2.092,0,0,1,8.2,299.379m592.809-5.158a2.091,2.091,0,0,1-1.338-.486,73.95,73.95,0,0,1-10.512-10.78,2.1,2.1,0,0,1,.333-2.945,2.121,2.121,0,0,1,.966-.429,2.09,2.09,0,0,1,.4-2.716,77.378,77.378,0,0,1,12.315-8.645,2.094,2.094,0,0,1,2.061,3.646,73.083,73.083,0,0,0-11.642,8.174,2.12,2.12,0,0,1-1.016.48,70.048,70.048,0,0,0,9.778,10,2.1,2.1,0,0,1-1.34,3.7m64.834-.771a2.067,2.067,0,0,1-.98-.245,2.09,2.09,0,0,1-.867-2.829,20.708,20.708,0,0,0,2.488-9.63,16.747,16.747,0,0,0-.293-3.179,2.1,2.1,0,0,1,4.115-.79,21.173,21.173,0,0,1,.367,3.973,24.888,24.888,0,0,1-2.978,11.588,2.089,2.089,0,0,1-1.851,1.112m-83.026-21.984a2.1,2.1,0,0,1-1.86-1.125,78.085,78.085,0,0,1-5.651-13.946,2.094,2.094,0,0,1,4.017-1.185,73.738,73.738,0,0,0,5.349,13.192,2.093,2.093,0,0,1-1.856,3.064M2.182,270.8a2.1,2.1,0,0,1-2.092-2Q0,266.858,0,264.911a79.954,79.954,0,0,1,.773-11.117,2.094,2.094,0,1,1,4.147.584,75.785,75.785,0,0,0-.731,10.532q0,1.85.088,3.7a2.1,2.1,0,0,1-2,2.189c-.031,0-.065,0-.1,0M660.2,267.493a2.082,2.082,0,0,1-1.164-.356,30.11,30.11,0,0,0-12.836-4.425,2.094,2.094,0,1,1,.54-4.153,33.8,33.8,0,0,1,14.631,5.1,2.094,2.094,0,0,1-1.171,3.833m-42.618-1.3a2.094,2.094,0,0,1-.666-4.08,77.592,77.592,0,0,1,14.665-3.368,2.095,2.095,0,1,1,.532,4.155,73.193,73.193,0,0,0-13.867,3.183,2.11,2.11,0,0,1-.664.109m-43.022-22.667a2.1,2.1,0,0,1-2.082-1.885,93.294,93.294,0,0,1-.473-9.464c0-1.814.052-3.663.155-5.5a2.093,2.093,0,1,1,4.18.232c-.1,1.761-.147,3.533-.147,5.271a88.637,88.637,0,0,0,.452,9.041,2.1,2.1,0,0,1-1.874,2.3c-.071.006-.142.01-.212.01M6.363,241.976a2.1,2.1,0,0,1-1.969-2.811,56.116,56.116,0,0,1,7.225-13.353,2.095,2.095,0,1,1,3.405,2.44A51.842,51.842,0,0,0,8.331,240.6a2.093,2.093,0,0,1-1.969,1.378m16.5-23.961a2.093,2.093,0,0,1-1.483-3.573,146.908,146.908,0,0,1,11.06-9.94,2.095,2.095,0,0,1,2.654,3.242,142.56,142.56,0,0,0-10.75,9.655,2.082,2.082,0,0,1-1.481.616m553.218-3.667a2.006,2.006,0,0,1-.4-.04,2.091,2.091,0,0,1-1.657-2.455,126.937,126.937,0,0,1,3.719-14.426,2.094,2.094,0,0,1,3.99,1.275,123.174,123.174,0,0,0-3.6,13.948,2.1,2.1,0,0,1-2.055,1.7M45.424,199.314a2.094,2.094,0,0,1-1.225-3.793c4.256-3.07,8.472-5.95,12.091-8.409a2.094,2.094,0,1,1,2.354,3.464c-3.594,2.442-7.783,5.3-12,8.344a2.085,2.085,0,0,1-1.223.394m539.492-12.863a2.094,2.094,0,0,1-1.918-2.93c1.925-4.427,4.12-8.913,6.52-13.335a2.1,2.1,0,0,1,3.682,2c-2.344,4.314-4.482,8.689-6.36,13a2.094,2.094,0,0,1-1.923,1.261m13.925-25.773a2.093,2.093,0,0,1-1.766-3.217c1.661-2.614,3.357-5.213,5.056-7.812q1.47-2.246,2.932-4.5a2.1,2.1,0,0,1,3.518,2.277q-1.467,2.262-2.943,4.52c-1.69,2.582-3.378,5.167-5.031,7.766a2.085,2.085,0,0,1-1.768.97M614.513,135.9a2.095,2.095,0,0,1-1.816-3.133,117.055,117.055,0,0,0,6.436-12.876A2.1,2.1,0,0,1,623,121.51a121.334,121.334,0,0,1-6.666,13.335,2.09,2.09,0,0,1-1.82,1.056m10.953-27.063a2.04,2.04,0,0,1-.4-.038,2.093,2.093,0,0,1-1.654-2.455,53.671,53.671,0,0,0,.978-10.235q0-1.91-.134-3.814A2.094,2.094,0,0,1,628.431,92c.094,1.37.144,2.752.144,4.107a57.892,57.892,0,0,1-1.055,11.033,2.1,2.1,0,0,1-2.055,1.694m-2.145-28.889a2.092,2.092,0,0,1-1.962-1.366,36.779,36.779,0,0,0-7.008-11.877,2.095,2.095,0,0,1,3.116-2.8,40.994,40.994,0,0,1,7.818,13.217,2.1,2.1,0,0,1-1.236,2.693,2.128,2.128,0,0,1-.729.132" transform="translate(0 69.173)" fill="#8692d9"/>
      <g id="Group_103" data-name="Group 103" transform="matrix(0.891, 0.454, -0.454, 0.891, 508.946, -1.728)">
        <path id="Path_2157327" data-name="Path 2157327" d="M143.078,65.326l-7.773,8.543a13.942,13.942,0,0,1,5.3,6.067,10.368,10.368,0,0,1-.4,8.505c-2.072,4.418-6.041,6.849-11.173,6.848a19.1,19.1,0,0,1-6.108-1.05C119.085,93.279,85.176,84.8,78.6,82.8c-1.936-.589-5.5-1.628-9.806-2.881l-.655-.191-18.2,19.232a9.331,9.331,0,0,1-6.932,3.106,9.2,9.2,0,0,1-3.725-.79c-4.768-2.117-7.489-5.768-7.664-10.284-.235-6.123,1.393-16.939,2.2-21.865-12.6-4.907-19.247-10.835-21.058-12.618C5.53,49.383,5.039,42.124,5.008,41.024c-.054-1.032-.228-8.871,6.54-12.254a13.466,13.466,0,0,1,1.749-.7c.045-.014.088-.034.135-.046a43.125,43.125,0,0,1,10.107-1.568,50.152,50.152,0,0,1,18.947,2.512l21.723,7.17C69.639,34.1,94.27,24.931,104.444,22.795a13.992,13.992,0,0,1,2.873-.263,45.641,45.641,0,0,1,17,4.1,7.67,7.67,0,0,1,.474,13.188c-11.411,7.314-18.482,11.921-22.307,14.47l12.767,7.619c4.1-2.1,11.534-5.963,13.53-7.328a8.169,8.169,0,0,1,4.7-1.323,16.262,16.262,0,0,1,7.353,2,6.924,6.924,0,0,1,2.632,9.532A3.257,3.257,0,0,1,143.078,65.326ZM37.811,90.751c.031.778.121,3.141,3.987,4.858a3.114,3.114,0,0,0,3.59-.857l16.07-16.978c-7.815-2.288-16.166-4.766-21.7-6.56C38.949,76.3,37.612,85.621,37.811,90.751ZM138.179,61.122a.708.708,0,0,0-.347-.44,10.009,10.009,0,0,0-4.351-1.228,2.381,2.381,0,0,0-1.2.24c-3.031,2.073-14.458,7.863-15.751,8.516a3.1,3.1,0,0,1-2.985-.105L96.315,57.823,91.744,58.98a19.932,19.932,0,0,1-12.638-.985l-3.759-1.6a3.1,3.1,0,0,1,2.433-5.7l3.758,1.6a13.727,13.727,0,0,0,8.69.678l5.2-1.317c2.021-1.526,7.836-5.4,26.018-17.054a1.41,1.41,0,0,0,.672-1.276,1.473,1.473,0,0,0-.784-1.264,40.706,40.706,0,0,0-14.021-3.333,7.892,7.892,0,0,0-1.6.132C96.826,30.728,75.28,38.63,67.909,41.376a13.612,13.612,0,0,0,2.261,4.27,3.1,3.1,0,1,1-4.859,3.846,19.819,19.819,0,0,1-3.69-7.677L40.545,34.858q-1.606-.526-3.247-.932a3.092,3.092,0,0,1-3.752,4.54q-2.9-1.118-5.885-1.978a3.1,3.1,0,0,1-2.124-3.832c.008-.025.02-.046.029-.073-.212,0-.424.015-.638.025a3.1,3.1,0,0,1-3.484,2.54c-3.476-.5-5.762-.809-6.854-.954-.1.043-.194.085-.271.124-3.361,1.679-3.135,6.188-3.126,6.357q.005.1.008.2c0,.226.18,5.578,5.908,11.222,3.491,3.44,10.9,8.428,21.233,12.108,5.486,1.955,19.049,5.936,29.3,8.925a3.086,3.086,0,0,1,.835.243l2.051.6c4.337,1.262,7.928,2.31,9.878,2.9,6.537,1.99,42.5,10.977,44.029,11.36a5.19,5.19,0,0,1,.522.16,13.19,13.19,0,0,0,4.077.7c3.6,0,4.9-1.874,5.564-3.285a4.1,4.1,0,0,0,.276-3.516c-.987-2.441-4.4-4.193-5.626-4.658a3.1,3.1,0,0,1-1.211-4.989L138.185,61.5a.722.722,0,0,0-.006-.376Z" transform="translate(-4.996 -22.53)" fill="#8692d9" stroke="#fff" stroke-width="1"/>
        <path id="Path_2157328" data-name="Path 2157328" d="M55.7,85.275a3.1,3.1,0,0,1,3.815-2.153l16.828,4.686a3.1,3.1,0,1,1-1.664,5.968L57.854,89.091A3.1,3.1,0,0,1,55.7,85.275Zm29.763,5.073L93,92.447a3.1,3.1,0,1,1-1.661,5.969l-7.54-2.1a3.1,3.1,0,1,1,1.662-5.968Zm-35.23,1.97,2.793.778a3.1,3.1,0,1,1-1.661,5.969l-2.794-.778a3.1,3.1,0,1,1,1.662-5.968Zm12.4,3.453L70.7,98.017a3.1,3.1,0,1,1-1.661,5.969l-8.065-2.246a3.1,3.1,0,1,1,1.662-5.968ZM79.247,32.25l8.471-3.1a3.1,3.1,0,1,1,2.131,5.818l-8.471,3.1a3.1,3.1,0,0,1-2.131-5.818ZM68.519,36.265,71,35.356a3.1,3.1,0,1,1,2.13,5.816l-2.477.908a3.1,3.1,0,0,1-2.134-5.815ZM30.173,76.332a3.1,3.1,0,1,1,6.138.841L35.952,79.8a3.1,3.1,0,0,1-6.139-.841Z" transform="translate(5.743 -19.002)" fill="#8692d9" stroke="#fff" stroke-width="1"/>
      </g>
    </g>
  </g>
</svg>
