<svg xmlns="http://www.w3.org/2000/svg" width="23.817" height="23.664" viewBox="0 0 23.817 23.664">
  <g id="Question_Mark" data-name="Question Mark" transform="translate(-6.873 -7.012)">
    <path id="Path_139" data-name="Path 139" d="M27.324,31.174a.943.943,0,0,1-.936-.936.806.806,0,0,1,.019-.183.769.769,0,0,1,.052-.178,1.091,1.091,0,0,1,.089-.16,1.018,1.018,0,0,1,.258-.257.744.744,0,0,1,.159-.089.823.823,0,0,1,.178-.052.934.934,0,0,1,.843.258.664.664,0,0,1,.117.14,1.091,1.091,0,0,1,.089.16.769.769,0,0,1,.052.178.806.806,0,0,1,.019.183.943.943,0,0,1-.936.936Zm-3.418-8.962a.7.7,0,0,1-.64-.983,4.255,4.255,0,0,1,4.059-2.2.7.7,0,0,1,0,1.4,2.912,2.912,0,0,0-2.778,1.374.709.709,0,0,1-.64.4Z" transform="translate(-8.479 -6.257)" fill="#1a35c9" stroke="#1a35c9" stroke-width="0.5"/>
    <path id="Path_140" data-name="Path 140" d="M31.2,28.333a.7.7,0,0,1-.7-.7v-.886c0-1.082.941-1.679,1.851-2.257,1.29-.819,2.06-1.391,1.618-2.7A2.942,2.942,0,0,0,31.2,20.435a.7.7,0,0,1,0-1.4,4.257,4.257,0,0,1,4.059,2.2c.008.017.015.035.021.052.863,2.46-.967,3.621-2.178,4.39-.562.357-1.2.761-1.2,1.071v.887a.7.7,0,0,1-.7.7Z" transform="translate(-12.357 -6.258)" fill="#1a35c9" stroke="#1a35c9" stroke-width="0.5"/>
    <path id="Path_141" data-name="Path 141" d="M18.845,30.425A11.581,11.581,0,0,1,9.334,12.237a.7.7,0,1,1,1.152.8,10.174,10.174,0,1,0,2.847-2.749.7.7,0,0,1-.762-1.18,11.581,11.581,0,1,1,6.275,21.316Z" transform="translate(0 0)" fill="#1a35c9" stroke="#1a35c9" stroke-width="0.5"/>
    <path id="Path_142" data-name="Path 142" d="M15.42,14.723a.7.7,0,0,1-.479-1.217l.132-.121a.7.7,0,1,1,.936,1.047l-.111.1a.7.7,0,0,1-.479.19Z" transform="translate(-3.963 -3.161)" fill="#1a35c9" stroke="#1a35c9" stroke-width="0.5"/>
  </g>
</svg>
