<svg id="Group_108" data-name="Group 108" xmlns="http://www.w3.org/2000/svg" xmlns:xlink="http://www.w3.org/1999/xlink" width="373.318" height="369.254" viewBox="0 0 373.318 369.254">
  <defs>
    <clipPath id="clip-path">
      <rect id="Rectangle_11" data-name="Rectangle 11" width="373.318" height="369.254" fill="#f0f0f0"/>
    </clipPath>
  </defs>
  <g id="Group_24" data-name="Group 24" clip-path="url(#clip-path)">
    <path id="Path_126" data-name="Path 126" d="M118.026,5.99,357.043,211.272a24.711,24.711,0,0,1,2.645,34.846L287.77,329.854a24.71,24.71,0,0,1-34.845,2.645L13.907,127.218a24.711,24.711,0,0,1-2.645-34.846L83.18,8.635A24.711,24.711,0,0,1,118.026,5.99" transform="translate(1.184 30.759)" fill="#1c3698"/>
    <path id="Path_127" data-name="Path 127" d="M75.34,0,73.257,2.425C64.181,12.993,65.04,28.616,75.174,37.32L314.981,243.281c10.135,8.7,25.708,7.193,34.785-3.373l2.083-2.425Z" transform="translate(-60.477 120.318)" fill="#fff"/>
    <path id="Path_128" data-name="Path 128" d="M123.883,21.072l5.945,4.921-.418.488-5.8-5.09Zm-16.392,19.09,5.851,5.028L97.254,63.931l-5.86-5.03ZM75.3,77.639l5.851,5.029-16.087,18.74L59.2,96.379ZM43.11,115.119l5.861,5.029-16.1,18.738-5.851-5.029Z" transform="translate(210.431 204.585)" fill="#fef4db"/>
    <path id="Path_129" data-name="Path 129" d="M132.784,114.748h0l-.007-.01-19.293-4.729,2.191,4.543q9.454,6.025,18.913,12.053,7.607,17.216,15.219,34.43l-40.27,4.6,3.531,6.594,14.915,3.685,1.432,2.674,3.716.908-1.427-2.661,9.983,2.467q.692,1.29,1.381,2.579,1.844.429,3.689.86l-1.35-2.521,14.456,3.57q3.157,7.141,6.31,14.277c1.137,2.094,4.986,8.538,12.462,10.651a17.955,17.955,0,0,0,4.789.667l.022,0,.01-.018a17.94,17.94,0,0,0,2.1-4.357c2.384-7.394-.847-14.17-1.958-16.275q-4.192-6.582-8.385-13.162l5.042-14.017,1.35,2.521,1.329-3.547q-.692-1.29-1.381-2.581l3.48-9.676,1.427,2.661,1.3-3.595-1.432-2.674,5.2-14.456-3.531-6.6L161.841,154.59l-20.292-31.857c.032.031.066.06.1.089L142.1,100.4q-1.287-2.171-2.567-4.342-3.381,9.342-6.76,18.681l.012.01" transform="translate(47.776 42.331)" fill="#fff"/>
    <path id="Path_130" data-name="Path 130" d="M98.95,48.582,362.184,221.723a24.711,24.711,0,0,1,7.066,34.224l-60.657,92.22a24.712,24.712,0,0,1-34.226,7.065L11.134,182.092a24.709,24.709,0,0,1-7.066-34.223l60.657-92.22A24.711,24.711,0,0,1,98.95,48.582" transform="translate(0 -44.514)" fill="#2a46b2"/>
    <path id="Path_131" data-name="Path 131" d="M57.288,44.461l-1.756,2.671C47.876,58.77,50.72,74.157,61.881,81.5l264.1,173.713c11.163,7.343,26.417,3.859,34.072-7.779l1.757-2.671Z" transform="translate(-51.181 55.794)" fill="#f0f0f0"/>
    <path id="Path_132" data-name="Path 132" d="M109.681,58.965l6.442,4.249-3.338,5.077-6.452-4.241ZM92.763,84.688l6.452,4.24L85.639,109.567l-6.452-4.245ZM65.612,125.962l6.453,4.24L58.489,150.84,52.039,146.6ZM38.463,167.237l6.452,4.241L31.34,192.117l-6.451-4.246Z" transform="translate(226.742 104.988)" fill="#fef4db"/>
    <path id="Path_133" data-name="Path 133" d="M129.3,155.152h0l-.007-.01-19.741-2.231,2.753,4.227,20.3,9.544h0l19.484,32.21-39.355,9.7,4.342,6.091,15.264,1.753,1.759,2.469,3.8.427-1.753-2.458,10.217,1.173,1.7,2.384,3.769.382-1.66-2.327,14.794,1.7,8.079,13.355c1.391,1.93,6.031,7.832,13.716,8.974a17.93,17.93,0,0,0,4.836.053h.021l.007-.02a17.927,17.927,0,0,0,1.527-4.588c1.423-7.639-2.644-13.947-4.016-15.892q-5-5.994-9.993-11.986l3.213-14.547,1.659,2.327q.435-1.843.867-3.687l-1.7-2.382,2.218-10.042,1.753,2.458q.417-1.867.834-3.732l-1.762-2.469,3.315-15-4.342-6.091L163.2,190.966l-24.186-29.011.108.076q-1.206-11.148-2.41-22.3l-3.1-3.979q-2.16,9.694-4.322,19.39l.012.009" transform="translate(45.836 -39.556)" fill="#fff"/>
  </g>
</svg>
